<mxfile host="app.diagrams.net" modified="2022-02-10T10:36:43.452Z" agent="5.0 (Macintosh; Intel Mac OS X 10_15_7) AppleWebKit/605.1.15 (KHTML, like Gecko) Version/15.3 Safari/605.1.15" etag="kV83OPsNiYTEXrdLRQqL" version="16.5.3" type="github">
  <diagram id="cu5XEfP0wrlN1pnz8sOZ" name="Page-1">
    <mxGraphModel dx="924" dy="755" grid="1" gridSize="10" guides="1" tooltips="1" connect="1" arrows="1" fold="1" page="1" pageScale="1" pageWidth="827" pageHeight="1169" math="0" shadow="0">
      <root>
        <mxCell id="0" />
        <mxCell id="1" parent="0" />
        <mxCell id="FjDUVqdoHGPzjqrBe1Mb-1" value="List" style="swimlane;fontStyle=0;childLayout=stackLayout;horizontal=1;startSize=30;horizontalStack=0;resizeParent=1;resizeParentMax=0;resizeLast=0;collapsible=1;marginBottom=0;" vertex="1" parent="1">
          <mxGeometry x="120" y="140" width="190" height="90" as="geometry" />
        </mxCell>
        <mxCell id="FjDUVqdoHGPzjqrBe1Mb-2" value="Flag" style="text;strokeColor=none;fillColor=none;align=left;verticalAlign=middle;spacingLeft=4;spacingRight=4;overflow=hidden;points=[[0,0.5],[1,0.5]];portConstraint=eastwest;rotatable=0;" vertex="1" parent="FjDUVqdoHGPzjqrBe1Mb-1">
          <mxGeometry y="30" width="190" height="30" as="geometry" />
        </mxCell>
        <mxCell id="FjDUVqdoHGPzjqrBe1Mb-3" value="Parnets" style="text;strokeColor=none;fillColor=none;align=left;verticalAlign=middle;spacingLeft=4;spacingRight=4;overflow=hidden;points=[[0,0.5],[1,0.5]];portConstraint=eastwest;rotatable=0;" vertex="1" parent="FjDUVqdoHGPzjqrBe1Mb-1">
          <mxGeometry y="60" width="190" height="30" as="geometry" />
        </mxCell>
      </root>
    </mxGraphModel>
  </diagram>
</mxfile>
